<svg xmlns="http://www.w3.org/2000/svg" width="1342" height="293" preserveAspectRatio="xMidYMid" version="1.0" viewBox="0 0 13420 2930">
  <path d="M3.375 2910c-3-7-4-663-3-1458l3-1445 294-3c208-2 298 1 307 9 12 9 14 106 14 550v539h580l2-547 3-548h610v2910h-610l-3-597-2-598h-580l-2 598-3 597-303 3c-237 2-304 0-307-10z"/>
  <path d="M3201.375 2910c-6-7-24-101-41-208-18-107-59-366-93-575-33-209-63-386-65-392-3-10-111-13-498-13-272 0-497-4-500-9-3-4 15-57 39-117 25-60 182-440 348-844l304-735 303-3c167-1 307 1 311 5 4 5 42 208 84 453s108 623 145 840c38 217 100 582 140 810 39 228 86 498 104 600s31 188 29 193c-2 4-138 7-302 7-227 0-301-3-308-12z"/>
  <path d="M4400.375 2910c-13-17-503-2472-502-2518 2-146 96-291 229-354l66-31h1000l73 24c126 41 242 132 290 228 53 102 56 134 57 508v350h-610l-6-125c-3-69-12-145-18-169-39-139-158-214-315-197-114 12-186 66-225 171-21 55-21 70-21 700 0 430 4 653 11 672 34 90 148 139 303 130 130-7 216-51 249-127 6-14 13-101 16-195l6-170 294-3c208-2 298 1 307 9 11 9 14 67 14 298 0 157-5 320-10 361-29 227-219 379-544 435-117 20-648 22-664 3z"/>
  <path d="M5803.375 2910c-3-7-4-663-3-1458l3-1445 296-3c240-2 298 0 308 11 8 10 12 180 13 587l3 572 154-268c85-148 238-412 339-586l184-318h298c182 0 301 4 305 10 3 5-172 343-390 751-217 407-395 744-395 749s178 320 395 700c217 381 393 696 389 701-3 5-136 9-304 9h-299l-338-532-338-532-5 529-5 530-303 3c-237 2-304 0-307-10z"/>
  <path d="M7805.375 2915c-4-3-7-656-7-1449 0-1143 3-1444 13-1451 16-11 577-17 587-6 5 4 11 252 15 550l8 543 296 2 296 3v610l-291 3-291 2-6 152c-4 83-7 348-7 588 0 326-3 439-12 448s-90 12-303 12c-161 0-295-3-298-7z"/>
  <path d="M9200.375 2910c-19-19-17-2881 2-2897 9-8 177-10 607-9l594 3v610l-292 3-293 2v480l293 2 292 3v610l-292 3-293 2v680h1070V1213c0-995 2-1190 14-1200 9-8 99-11 307-9l294 3v2910l-1145 3c-883 2-1149-1-1158-10z"/>
  <path d="M12795.375 2916c-3-3-3-495 0-1093 3-597 3-1084 1-1081-3 3-112 154-243 335-130 182-240 334-245 338-4 5-145-153-314-349l-306-358 2-345c2-244 6-346 14-346 6 0 140 151 298 335s291 336 296 338c4 2 119-153 255-343l248-347 298 4c191 2 302 7 309 14s9 454 8 1455l-3 1444-306 3c-168 1-308-1-312-4z"/>
</svg>
