<?xml version="1.0" encoding="UTF-8" standalone="no"?>
<svg
   xmlns:dc="http://purl.org/dc/elements/1.1/"
   xmlns:cc="http://creativecommons.org/ns#"
   xmlns:rdf="http://www.w3.org/1999/02/22-rdf-syntax-ns#"
   xmlns:svg="http://www.w3.org/2000/svg"
   xmlns="http://www.w3.org/2000/svg"
   xmlns:sodipodi="http://sodipodi.sourceforge.net/DTD/sodipodi-0.dtd"
   xmlns:inkscape="http://www.inkscape.org/namespaces/inkscape"
   version="1.0"
   width="1351.6616"
   height="302.31851"
   viewBox="0 0 13516.616 3023.1851"
   preserveAspectRatio="xMidYMid meet"
   id="svg38"
   sodipodi:docname="hackheimLogoFina_preview.svg"
   inkscape:version="0.92.1 r15371">
  <metadata
     id="metadata44">
    <rdf:RDF>
      <cc:Work
         rdf:about="">
        <dc:format>image/svg+xml</dc:format>
        <dc:type
           rdf:resource="http://purl.org/dc/dcmitype/StillImage" />
        <dc:title></dc:title>
      </cc:Work>
    </rdf:RDF>
  </metadata>
  <defs
     id="defs42" />
  <sodipodi:namedview
     pagecolor="#ffffff"
     bordercolor="#666666"
     borderopacity="1"
     objecttolerance="10"
     gridtolerance="10"
     guidetolerance="10"
     inkscape:pageopacity="0"
     inkscape:pageshadow="2"
     inkscape:window-width="1920"
     inkscape:window-height="1137"
     id="namedview40"
     showgrid="false"
     fit-margin-top="5"
     fit-margin-left="5"
     fit-margin-right="5"
     fit-margin-bottom="5"
     inkscape:zoom="0.90509668"
     inkscape:cx="425.64877"
     inkscape:cy="230.64348"
     inkscape:window-x="-8"
     inkscape:window-y="-8"
     inkscape:window-maximized="1"
     inkscape:current-layer="svg38" />
  <g
     id="layerbg1"
     transform="translate(-1371.625,-1808)">
    <path
       d="m 1425,4768 c -3,-7 -4,-663 -3,-1458 l 3,-1445 294,-3 c 208,-2 298,1 307,9 12,9 14,106 14,550 v 539 h 290 290 l 2,-547 3,-548 h 305 305 v 1455 1455 h -305 -305 l -3,-597 -2,-598 h -290 -290 l -2,598 -3,597 -303,3 c -237,2 -304,0 -307,-10 z"
       id="path2"
       inkscape:connector-curvature="0" />
    <path
       d="m 4623,4768 c -6,-7 -24,-101 -41,-208 -18,-107 -59,-366 -93,-575 -33,-209 -63,-386 -65,-392 -3,-10 -111,-13 -498,-13 -272,0 -497,-4 -500,-9 -3,-4 15,-57 39,-117 25,-60 182,-440 348,-844 l 304,-735 303,-3 c 167,-1 307,1 311,5 4,5 42,208 84,453 42,245 108,623 145,840 38,217 100,582 140,810 39,228 86,498 104,600 18,102 31,188 29,193 -2,4 -138,7 -302,7 -227,0 -301,-3 -308,-12 z"
       id="path4"
       inkscape:connector-curvature="0" />
    <path
       d="m 5822,4768 c -13,-17 -503,-2472 -502,-2518 2,-146 96,-291 229,-354 l 66,-31 h 500 500 l 73,24 c 126,41 242,132 290,228 53,102 56,134 57,508 v 350 h -305 -305 l -6,-125 c -3,-69 -12,-145 -18,-169 -39,-139 -158,-214 -315,-197 -114,12 -186,66 -225,171 -21,55 -21,70 -21,700 0,430 4,653 11,672 34,90 148,139 303,130 130,-7 216,-51 249,-127 6,-14 13,-101 16,-195 l 6,-170 294,-3 c 208,-2 298,1 307,9 11,9 14,67 14,298 0,157 -5,320 -10,361 -29,227 -219,379 -544,435 -117,20 -648,22 -664,3 z"
       id="path6"
       inkscape:connector-curvature="0" />
    <path
       d="m 7225,4768 c -3,-7 -4,-663 -3,-1458 l 3,-1445 296,-3 c 240,-2 298,0 308,11 8,10 12,180 13,587 l 3,572 154,-268 c 85,-148 238,-412 339,-586 l 184,-318 h 298 c 182,0 301,4 305,10 3,5 -172,343 -390,751 -217,407 -395,744 -395,749 0,5 178,320 395,700 217,381 393,696 389,701 -3,5 -136,9 -304,9 h -299 l -338,-532 -338,-532 -5,529 -5,530 -303,3 c -237,2 -304,0 -307,-10 z"
       id="path8"
       inkscape:connector-curvature="0" />
    <path
       d="m 9227,4773 c -4,-3 -7,-656 -7,-1449 0,-1143 3,-1444 13,-1451 16,-11 577,-17 587,-6 5,4 11,252 15,550 l 8,543 296,2 296,3 v 305 305 l -291,3 -291,2 -6,152 c -4,83 -7,348 -7,588 0,326 -3,439 -12,448 -9,9 -90,12 -303,12 -161,0 -295,-3 -298,-7 z"
       id="path10"
       inkscape:connector-curvature="0" />
    <path
       d="m 10622,4768 c -19,-19 -17,-2881 2,-2897 9,-8 177,-10 607,-9 l 594,3 v 305 305 l -292,3 -293,2 v 240 240 l 293,2 292,3 v 305 305 l -292,3 -293,2 v 340 340 h 535 535 V 3071 c 0,-995 2,-1190 14,-1200 9,-8 99,-11 307,-9 l 294,3 v 1455 1455 l -1145,3 c -883,2 -1149,-1 -1158,-10 z"
       id="path12"
       inkscape:connector-curvature="0" />
    <path
       d="m 14217,4774 c -3,-3 -3,-495 0,-1093 3,-597 3,-1084 1,-1081 -3,3 -112,154 -243,335 -130,182 -240,334 -245,338 -4,5 -145,-153 -314,-349 l -306,-358 2,-345 c 2,-244 6,-346 14,-346 6,0 140,151 298,335 158,184 291,336 296,338 4,2 119,-153 255,-343 l 248,-347 298,4 c 191,2 302,7 309,14 7,7 9,454 8,1455 l -3,1444 -306,3 c -168,1 -308,-1 -312,-4 z"
       id="path14"
       inkscape:connector-curvature="0" />
  </g>
</svg>
